<?xml version="1.0" encoding="UTF-8"?>
<svg id="Layer_2" xmlns="http://www.w3.org/2000/svg" viewBox="0 0 383.39 248.5">
  <defs>
    <style>
      .cls-1 {
        fill: #FFF;
      }
    </style>
  </defs>
  <g id="_x2DC_รรฐ_x5F_1">
    <path class="cls-1" d="M383.39,16.73v221.75c0,1.61-.39,3.19-1.13,4.61l-135.43-101.7L383.39,16.73ZM136.55,141.39L1.12,243.1c-.74-1.41-1.12-2.99-1.12-4.62V16.73l136.55,124.66ZM149.08,152.83l13.16,12.02c8.06,7.36,18.52,11.41,29.44,11.41s21.38-4.05,29.45-11.41l13.16-12.02,127.38,95.66H21.71l127.38-95.66ZM173.49,152.53L6.94.48c.99-.32,2.02-.48,3.08-.48h363.35c1.06,0,2.09.16,3.08.48l-166.55,152.05c-10.38,9.47-26.03,9.48-36.4,0Z"/>
  </g>
</svg>