<svg width="21" height="20" viewBox="0 0 21 20" fill="none" xmlns="http://www.w3.org/2000/svg">
<path d="M10.5872 18.3334C15.1896 18.3334 18.9206 14.6025 18.9206 10.0001C18.9206 5.39774 15.1896 1.66678 10.5872 1.66678C5.98487 1.66678 2.25391 5.39774 2.25391 10.0001C2.25391 14.6025 5.98487 18.3334 10.5872 18.3334Z" stroke="#FFF" stroke-width="1.5" stroke-linecap="round" stroke-linejoin="round"/>
<path d="M7.25382 2.50011H8.08716C6.46216 7.36678 6.46216 12.6334 8.08716 17.5001H7.25382" stroke="#FFF" stroke-width="1.5" stroke-linecap="round" stroke-linejoin="round"/>
<path d="M13.0872 2.50011C14.7122 7.36678 14.7122 12.6334 13.0872 17.5001" stroke="#FFF" stroke-width="1.5" stroke-linecap="round" stroke-linejoin="round"/>
<path d="M3.08716 13.3334V12.5001C7.95382 14.1251 13.2205 14.1251 18.0872 12.5001V13.3334" stroke="#FFF" stroke-width="1.5" stroke-linecap="round" stroke-linejoin="round"/>
<path d="M3.08716 7.50011C7.95382 5.87511 13.2205 5.87511 18.0872 7.50011" stroke="#FFF" stroke-width="1.5" stroke-linecap="round" stroke-linejoin="round"/>
</svg>
