<?xml version="1.0" encoding="UTF-8"?>
<svg id="Layer_2" xmlns="http://www.w3.org/2000/svg" viewBox="0 0 276.34 334.25">
  <defs>
    <style>
      .cls-1 {
        fill: #FFF;
      }
    </style>
  </defs>
  <g id="_x2DC_รรฐ_x5F_1">
    <path class="cls-1" d="M76.88,147.76c-2.35-6.81.67-14.33,7.1-17.6,11.12-5.66,26.98-15.01,27.74-22.63,1.98-19.65-3.2-79.11-10.01-93.97C97.62,4.65,74.27-1.83,64.73.47,54.66,2.89,19.29,20.49,3.88,67.86c-15.4,47.37,19.26,111.3,30.04,132.87,10.78,21.57,66.98,96.62,100.68,114.28,30.94,16.21,71.21,33.07,117.3,1.26,36.76-25.37,22.72-52.31,16.95-56.23-12.59-8.54-48.44-26.86-65.9-32.64-4.95-1.64-12.37-2.69-20.83,1.02-3.46,1.52-8.29,5.1-12.75,8.78-7.56,6.22-18.44,6.24-26.01.03-18.92-15.51-51.89-47.2-66.47-89.47Z"/>
  </g>
</svg>